<?xml version="1.0" encoding="UTF-8" standalone="no"?>
<!-- Created with Inkscape (http://www.inkscape.org/) -->

<svg
   width="99.794167mm"
   height="99.794182mm"
   viewBox="0 0 99.794167 99.794182"
   version="1.1"
   id="svg1"
   xml:space="preserve"
   xmlns="http://www.w3.org/2000/svg"
   xmlns:svg="http://www.w3.org/2000/svg"><defs
     id="defs1"><clipPath
       clipPathUnits="userSpaceOnUse"
       id="clipPath2"><rect
         style="opacity:0.482851;fill:#7f17ff;stroke-width:0.264583"
         id="rect3"
         width="99.794174"
         height="99.794174"
         x="57.878731"
         y="57.062462" /></clipPath></defs><g
     id="layer1"
     transform="translate(-57.878731,-57.062462)"><g
       id="g3"><g
         id="g4"><rect
           style="opacity:0.482851;fill:none;stroke-width:0.264583"
           id="rect1"
           width="99.794174"
           height="99.794174"
           x="57.878731"
           y="57.062462" /><path
           style="fill:#ffffff"
           d="m 58.961588,199.21925 c -0.83795,-0.69374 -2.48141,-1.95103 -3.65215,-2.79396 l -2.12861,-1.53262 -1.82278,0.30103 c -8.12005,1.341 -15.20956,-2.36931 -17.49021,-9.15353 -0.47042,-1.39934 -0.59991,-2.36794 -0.59308,-4.43607 0.0182,-5.52436 2.47448,-9.49949 7.36661,-11.92202 2.2615,-1.11987 4.86449,-1.69483 7.67292,-1.69483 7.09141,0 12.76203,3.86236 14.41194,9.81624 1.33185,4.80614 0.13298,9.84207 -3.1391,13.18605 l -1.49481,1.52765 2.38703,1.60917 c 1.31286,0.88504 2.73916,1.89686 3.16955,2.24849 l 0.78253,0.63932 -1.82424,1.75382 c -1.00333,0.9646 -1.89125,1.74455 -1.97315,1.73322 -0.0819,-0.0113 -0.83451,-0.58821 -1.67245,-1.28196 z m -6.47775,-8.96558 c 6.44359,-2.88114 7.37797,-11.99969 1.64714,-16.07416 -3.37029,-2.39619 -8.35904,-2.49816 -11.66071,-0.23835 -2.55416,1.74818 -3.85914,4.26935 -3.89792,7.53065 -0.0514,4.32049 2.02149,7.3787 6.12065,9.03007 1.73503,0.69896 5.97459,0.5639 7.79084,-0.24821 z m 21.98285,4.98147 c -1.39998,-0.29729 -2.96904,-1.09994 -3.71634,-1.90109 -1.34726,-1.44434 -1.76794,-3.85893 -0.99472,-5.70949 1.13915,-2.72638 3.93592,-3.7715 10.09266,-3.7715 h 3.2587 v -0.75462 c 0,-1.01933 -0.99871,-2.44699 -2.12194,-3.03331 -1.37503,-0.71777 -5.13775,-0.4924 -7.20255,0.43141 l -1.51929,0.67974 -0.75079,-1.109 c -0.41294,-0.60996 -0.83479,-1.25327 -0.93745,-1.4296 -0.19621,-0.33697 1.16554,-1.14636 3.04338,-1.8089 1.91293,-0.67493 5.15216,-0.96998 7.18544,-0.65451 4.76497,0.73931 6.70296,2.8058 6.8606,7.31546 0.0401,1.14572 0.043,4.19648 0.007,6.77948 l -0.0661,4.69635 h -2.24896 -2.24896 v -1.0708 -1.0708 l -0.99219,0.79427 c -0.5457,0.43685 -1.43119,0.97672 -1.96776,1.1997 -1.2174,0.50593 -4.223,0.72669 -5.68035,0.41721 z m 6.73921,-4.0422 c 1.17692,-0.77885 1.90109,-2.10343 1.90109,-3.47726 v -0.9522 h -3.15777 c -3.31311,0 -4.26163,0.203 -5.24275,1.12208 -0.6528,0.61151 -0.7989,1.97188 -0.30989,2.88559 0.78019,1.45781 4.86175,1.71063 6.80932,0.42179 z m 45.689632,4.13918 c -2.22316,-0.55314 -3.49597,-1.46026 -4.19259,-2.98801 -0.49229,-1.07966 -0.56524,-1.82661 -0.65484,-6.70511 l -0.10083,-5.49011 h -1.69306 -1.69305 v -1.85208 -1.85208 h 1.71053 1.71054 l 0.0754,-2.71198 0.0754,-2.71198 2.27594,-0.0759 2.27593,-0.0759 0.16958,1.79567 c 0.0933,0.98761 0.17043,2.24215 0.17146,2.78785 l 0.002,0.99219 h 2.77813 2.77812 v 1.85208 1.85208 h -2.91041 -2.91042 l 10e-4,4.29948 c 0.002,4.66561 0.23501,6.04885 1.12601,6.67293 0.72745,0.50953 2.63832,0.52321 3.60025,0.0258 l 0.73271,-0.3789 0.53645,1.82163 0.53645,1.82163 -1.08386,0.43625 c -1.08552,0.43691 -4.32279,0.73185 -5.3172,0.48443 z m 18.65313,-0.005 c -2.29422,-0.43993 -4.02066,-1.43285 -4.996,-2.87331 -1.09698,-1.62012 -1.34539,-3.45851 -1.34987,-9.99018 l -0.004,-6.01927 h 2.51354 2.51354 v 5.97928 c 0,6.72111 0.12891,7.325 1.78176,8.34652 2.16225,1.33634 5.9082,0.40628 7.14357,-1.77364 0.56105,-0.99 0.59118,-1.3341 0.59532,-6.79748 l 0.004,-5.75468 h 2.51354 2.51354 v 9.26041 9.26042 h -2.38125 -2.38125 v -1.05833 c 0,-0.58209 -0.0665,-1.05834 -0.1478,-1.05834 -0.0813,0 -0.58731,0.35182 -1.12448,0.78181 -0.53717,0.42999 -1.41568,0.96425 -1.95225,1.18723 -1.02417,0.42563 -4.11372,0.72594 -5.24213,0.50956 z m 24.41684,-0.22174 c -1.33039,-0.29757 -4.10952,-1.44137 -4.53553,-1.86667 -0.0521,-0.052 0.33704,-0.80533 0.86475,-1.67404 l 0.95948,-1.57948 1.5165,0.74686 c 3.50931,1.72829 7.80143,1.55922 8.50212,-0.33491 0.54643,-1.47714 -0.32989,-2.1068 -4.30208,-3.09116 -4.41426,-1.09392 -5.46412,-1.66727 -6.41307,-3.50233 -0.61721,-1.19355 -0.41447,-3.803 0.38242,-4.92213 2.14908,-3.01811 8.49479,-3.76713 13.56476,-1.60114 l 1.22182,0.52199 -0.80128,1.5038 c -0.44071,0.8271 -0.83808,1.5498 -0.88304,1.606 -0.045,0.0562 -0.65093,-0.13907 -1.34658,-0.43394 -3.10056,-1.31428 -5.8743,-1.34275 -7.29333,-0.0748 -0.64617,0.57735 -0.76479,0.84709 -0.62224,1.41504 0.22533,0.8978 1.10769,1.3396 3.74033,1.8728 4.81046,0.97427 6.96085,2.24168 7.55647,4.45366 1.1049,4.10325 -2.45391,7.16039 -8.48251,7.28675 -1.09141,0.0229 -2.72445,-0.12394 -3.62899,-0.32626 z M 95.341588,181.273 l 0.0685,-13.69218 2.38078,0.003 c 1.91772,0.003 2.385912,0.0798 2.407102,0.39688 0.0145,0.21648 0.0444,3.87618 0.0666,8.13267 0.0232,4.45388 0.1427,7.73906 0.28152,7.73906 0.13268,0 1.98446,-1.66687 4.11507,-3.70417 l 3.87385,-3.70416 h 3.01522 3.01522 l -3.49227,3.41556 c -1.92075,1.87856 -3.83053,3.72838 -4.24396,4.11073 -0.9645,0.89197 -1.1105,0.68037 4.3915,6.36433 l 4.35393,4.49792 -3.07083,0.0766 -3.07083,0.0766 -1.44075,-1.5318 c -0.79241,-0.8425 -2.44928,-2.57847 -3.68194,-3.85772 l -2.24118,-2.32592 -1.00232,0.97873 -1.00231,0.97874 0.14046,2.86853 0.14046,2.86854 h -2.536192 -2.53619 z m -13.53546,-29.00916 c 0.0606,-0.0571 2.31289,-0.71567 5.00503,-1.4635 2.69213,-0.74783 6.65096,-1.84882 8.79739,-2.44665 l 3.90261,-1.08696 V 135.6471 124.02748 l -1.25677,-0.5389 c -3.33259,-1.42898 -8.9085,-4.31255 -11.04636,-5.71261 -4.37067,-2.86231 -6.39006,-4.96389 -8.07447,-8.40311 -1.60358,-3.27419 -1.86728,-5.14078 -2.03908,-14.433731 l -0.14944,-8.08373 0.73906,-1.64683 c 0.78605,-1.75156 1.83177,-2.84569 3.64431,-3.81304 1.51802,-0.81017 5.64358,-0.86758 7.07025,-0.0984 1.83586,0.9898 2.89149,2.04317 3.69072,3.68283 0.95518,1.9596 0.97231,2.08644 1.20823,8.94357 0.24481,7.115481 0.43598,7.568331 4.05615,9.608361 0.92349,0.52039 1.7271,0.94617 1.78581,0.94617 0.0587,0 0.077,-8.304601 0.0407,-18.454681 l -0.066,-18.45469 0.74545,-1.455209 c 2.212602,-4.319256 6.955682,-6.054074 11.240312,-4.111226 2.00354,0.9085 3.78041,2.756045 4.40073,4.575781 0.60975,1.788718 0.65056,3.123208 0.81483,26.642614 0.0813,11.634721 0.1902,21.196501 0.2421,21.248401 0.0519,0.0519 1.02991,-0.61027 2.17338,-1.47147 3.47322,-2.61585 3.37714,-2.27634 3.53424,-12.48827 l 0.1323,-8.598951 0.8938,-1.64811 c 1.49986,-2.76562 3.88226,-4.14373 7.17599,-4.15098 1.75312,-0.004 2.17795,0.0996 3.64545,0.88766 1.10158,0.59157 1.96075,1.30161 2.55074,2.10798 1.77355,2.42403 1.74072,2.16412 1.75406,13.882911 0.0136,11.94491 -0.0117,12.15746 -1.90798,16.03008 -0.91731,1.87335 -1.53292,2.67218 -3.77207,4.89479 -1.47172,1.46084 -3.62638,3.33004 -4.78813,4.15377 -2.43988,1.72998 -7.791,4.99059 -9.83727,5.99417 l -1.40314,0.68817 v 6.27611 6.2761 l 1.38907,0.38957 c 6.26651,1.75744 12.5427,3.49694 14.04676,3.89319 0.99538,0.26224 1.87843,0.54544 1.96233,0.62934 0.0839,0.0839 -11.67434,0.15254 -26.12941,0.15254 -14.455072,0 -26.232332,-0.0467 -26.171702,-0.10381 z m 30.742112,-12.56028 -0.15342,-7.37243 2.35557,-1.26306 c 8.03786,-4.30993 11.25484,-6.47256 14.53088,-9.76843 2.00144,-2.01356 2.86375,-3.10613 3.5221,-4.46256 1.53012,-3.15263 1.65114,-4.34113 1.49112,-14.64469 -0.1363,-8.776161 -0.16827,-9.234621 -0.70437,-10.102051 -0.71686,-1.15991 -2.547,-2.01703 -3.80347,-1.78132 -0.9586,0.17983 -2.30518,1.17536 -2.83094,2.0929 -0.2289,0.39948 -0.36567,3.02678 -0.46335,8.901141 -0.1314,7.90186 -0.17012,8.41329 -0.74628,9.85485 -0.71879,1.79842 -2.69634,4.06134 -4.78376,5.47406 -2.67916,1.8132 -8.26563,5.08857 -8.41845,4.93575 -0.0825,-0.0825 -0.25997,-11.90891 -0.39427,-26.280801 -0.23774,-25.441045 -0.25835,-26.160661 -0.78106,-27.264892 -1.4491,-3.061243 -5.37669,-3.32387 -7.46743,-0.499327 -0.55082,0.744141 -0.55349,0.850687 -0.55349,22.026599 0,11.703371 -0.0824,21.278831 -0.18313,21.278801 -0.41823,-9e-5 -7.360512,-3.27787 -8.995492,-4.2472 -1.74795,-1.03629 -3.21399,-2.54103 -3.9821,-4.08721 -0.72353,-1.45646 -0.96934,-3.395841 -1.14461,-9.030861 -0.15665,-5.0365 -0.23003,-5.69034 -0.7395,-6.58971 -0.84029,-1.48335 -1.78561,-2.07598 -3.31146,-2.07598 -1.48824,0 -2.44799,0.52383 -3.24255,1.76978 -0.52111,0.81715 -0.53409,1.11189 -0.38697,8.78302 0.16645,8.679121 0.33563,9.866331 1.7987,12.622141 1.05994,1.99648 3.49846,4.40157 6.42877,6.34063 2.53727,1.67897 8.49804,4.71523 11.773962,5.99735 l 1.98438,0.77663 0.231,12.99465 0.23101,12.99464 h 4.44602 4.44601 z"
           id="path1"
           clip-path="url(#clipPath2)" /></g></g></g></svg>
